<svg xmlns="http://www.w3.org/2000/svg" fill="none" viewBox="0 0 24 24" id="Snail--Streamline-Cyber.svg" height="24" width="24"><desc>Snail Streamline Icon: https://streamlinehq.com</desc><path fill="#2a1f37" d="M22.29 6.855H17.88L13.47 16.655L11.51 14.695L12.49 13.715L7.1 8.815L0.73 15.675L4.65 21.555H16.9L19.84 11.755H23.27L22.29 6.855Z" stroke-width="1"></path><path fill="#e6875b" d="M23.27 11.755L22.29 6.855H17.88L13.47 16.655V21.555H16.9L19.84 11.755H23.27Z" stroke-width="1"></path><path fill="#e6875b" d="M4.65 21.555H13.47V19.595H5.63L0.73 15.675L4.65 21.555Z" stroke-width="1"></path><path stroke="#a79ab4" stroke-linecap="round" stroke-linejoin="round" stroke-miterlimit="10" d="M7.1 16.165L9.06 14.205L7.1 12.245L3.67 15.675L7.59 19.105L12.49 13.715L7.1 8.815L0.73 15.675L4.65 21.555H13.47V16.655L11.51 14.695" stroke-width="1"></path><path stroke="#a79ab4" stroke-linecap="round" stroke-linejoin="round" stroke-miterlimit="10" d="M23.27 11.755L22.29 6.855H17.88L13.47 16.655V21.555H16.9L19.84 11.755H23.27Z" stroke-width="1"></path><path stroke="#a79ab4" stroke-linecap="round" stroke-linejoin="round" stroke-miterlimit="10" d="M20.33 2.445L18.86 6.855" stroke-width="1"></path><path stroke="#a79ab4" stroke-linecap="round" stroke-linejoin="round" stroke-miterlimit="10" d="M16.41 2.445L17.88 6.855" stroke-width="1"></path><path stroke="#a79ab4" stroke-linecap="round" stroke-linejoin="round" stroke-miterlimit="10" d="M20.33 9.795V8.815" stroke-width="1"></path></svg>