<svg xmlns="http://www.w3.org/2000/svg" fill="none" viewBox="0 0 400 400" id="Astronaut--Streamline-Bangalore.svg" height="400" width="400"><desc>Astronaut Streamline Illustration: https://streamlinehq.com</desc><g id="astronaut--science-technology-astronaut"><g id="flag"><path id="vector" fill="#d6587e" d="m62.49 130.228 -10.488 36.538a2.46 2.46 0 1 0 4.726 1.35l10.17 -35.84a25.63 25.63 0 0 0 -4.408 -2.048Z" stroke-width="1"></path><path id="vector_2" stroke="#baaec4" stroke-linecap="round" stroke-linejoin="round" d="m62.49 130.228 -10.488 36.538a2.46 2.46 0 1 0 4.726 1.35l10.17 -35.84a25.63 25.63 0 0 0 -4.408 -2.048Z" stroke-width="1"></path><path id="vector_3" stroke="#baaec4" stroke-linecap="round" stroke-linejoin="round" d="M80.304 85.046c-10.876 -6.41 -24.802 -3.092 -37.044 -6.172a36.124 36.124 0 0 1 -19.854 -13.172L10.002 112.934a36.126 36.126 0 0 0 19.854 13.172c12.242 3.08 26.168 -0.238 37.044 6.172l13.404 -47.232Z" stroke-width="1"></path></g><g id="planet 1"><path id="vector_4" stroke="#baaec4" stroke-linecap="round" stroke-linejoin="round" d="M73.55 300.776c-17.47 -3.154 -34.19 8.452 -37.344 25.922 -3.154 17.47 8.452 34.19 25.922 37.344 17.47 3.154 34.19 -8.452 37.344 -25.922 3.154 -17.47 -8.452 -34.19 -25.922 -37.342v-0.002Z" stroke-width="1"></path><path id="vector_5" fill="#f48250" d="M63.906 338.026c12.422 -2.502 22.346 -9.81 36.078 -5.042a32.07 32.07 0 0 0 -5.12 -17.97c-6.64 0.834 -10.724 3.768 -16.666 5.952 -7.982 2.934 -16.098 1.054 -21.88 -3.446 -3.312 -2.578 -4.844 -5.762 -7.866 -10.742a32.092 32.092 0 0 0 -12.752 24.896c8.16 6.854 17.758 8.456 28.206 6.354v-0.002Z" stroke-width="1"></path><path id="vector_6" stroke="#baaec4" stroke-linecap="round" stroke-linejoin="round" d="M63.906 338.026c12.422 -2.502 22.346 -9.81 36.078 -5.042a32.07 32.07 0 0 0 -5.12 -17.97c-6.64 0.834 -10.724 3.768 -16.666 5.952 -7.982 2.934 -16.098 1.054 -21.88 -3.446 -3.312 -2.578 -4.844 -5.762 -7.866 -10.742a32.092 32.092 0 0 0 -12.752 24.896c8.16 6.854 17.758 8.456 28.206 6.354v-0.002Z" stroke-width="1"></path><path id="vector_7" fill="#d6587e" d="M69.522 307.724c2.576 2.172 5.962 3.136 9.166 1.826 2.446 -1.002 4.632 -2.532 6.864 -3.96a32.108 32.108 0 0 0 -22.062 -5.028c1.94 2.44 3.63 5.136 6.032 7.162Z" stroke-width="1"></path><path id="vector_8" stroke="#baaec4" stroke-linecap="round" stroke-linejoin="round" d="M69.522 307.724c2.576 2.172 5.962 3.136 9.166 1.826 2.446 -1.002 4.632 -2.532 6.864 -3.96a32.108 32.108 0 0 0 -22.062 -5.028c1.94 2.44 3.63 5.136 6.032 7.162Z" stroke-width="1"></path><path id="vector_9" fill="#d6587e" d="M64.924 351.44c-4.028 1.182 -10.662 5.778 -17.082 6.102a32.044 32.044 0 0 0 38.896 0.858c-9.704 -1.168 -14.024 -9.246 -21.814 -6.96Z" stroke-width="1"></path><path id="vector_10" stroke="#baaec4" stroke-linecap="round" stroke-linejoin="round" d="M64.924 351.44c-4.028 1.182 -10.662 5.778 -17.082 6.102a32.044 32.044 0 0 0 38.896 0.858c-9.704 -1.168 -14.024 -9.246 -21.814 -6.96Z" stroke-width="1"></path></g><g id="planet 2"><path id="vector_11" fill="#f48250" d="M337.958 260.222c8.994 3.422 17.602 5.83 24.856 7.116a27.378 27.378 0 0 0 4.854 -8.154c5.382 -14.142 -1.718 -29.968 -15.86 -35.352 -14.142 -5.384 -29.97 1.718 -35.352 15.86a27.326 27.326 0 0 0 -1.796 9.316c6.274 3.862 14.304 7.79 23.298 11.214Z" stroke-width="1"></path><path id="vector_12" fill="#f48250" d="M336.874 263.068c-8.188 -3.118 -15.67 -6.64 -22.006 -10.244 1.22 9.732 7.64 18.488 17.448 22.218a27.392 27.392 0 0 0 27.804 -4.996c-7.128 -1.522 -15.058 -3.862 -23.246 -6.978Z" stroke-width="1"></path><g id="group"><path id="vector_13" stroke="#baaec4" stroke-linecap="round" stroke-linejoin="round" d="M362.814 267.338a27.378 27.378 0 0 0 4.854 -8.154c5.382 -14.142 -1.718 -29.968 -15.86 -35.352 -14.142 -5.384 -29.97 1.718 -35.352 15.86a27.326 27.326 0 0 0 -1.796 9.316" stroke-width="1"></path><path id="vector_14" stroke="#baaec4" stroke-linecap="round" stroke-linejoin="round" d="M314.868 252.826c1.22 9.732 7.64 18.488 17.448 22.218a27.392 27.392 0 0 0 27.804 -4.996" stroke-width="1"></path></g><path id="vector_15" stroke="#baaec4" stroke-linecap="round" stroke-linejoin="round" d="M369.26 246.094c0.154 1.246 0.224 2.506 0.204 3.774 1.324 0.442 15.694 9.838 13.654 15.196 -2.266 5.956 -22.486 3.786 -45.16 -4.844 -22.674 -8.63 -39.22 -20.454 -36.952 -26.41 1.368 -3.592 9.27 -4.228 20.304 -2.272a27.14 27.14 0 0 1 2.694 -2.71c-15.78 -3.37 -27.62 -2.712 -29.594 2.472 -2.866 7.528 16.146 21.75 42.464 31.768 26.318 10.018 49.976 12.036 52.84 4.506 2.704 -7.106 -15.946 -19.77 -20.454 -21.48Z" stroke-width="1"></path></g><g id="elements"><g id="group_2"><path id="vector_16" stroke="#baaec4" stroke-linecap="round" stroke-linejoin="round" d="M286.404 40.9h19.156" stroke-width="1"></path><path id="vector_17" stroke="#baaec4" stroke-linecap="round" stroke-linejoin="round" d="M295.982 50.478v-19.156" stroke-width="1"></path></g><g id="group_3"><path id="vector_18" stroke="#baaec4" stroke-linecap="round" stroke-linejoin="round" d="M259.476 74.768h10.448" stroke-width="1"></path><path id="vector_19" stroke="#baaec4" stroke-linecap="round" stroke-linejoin="round" d="M264.7 79.992v-10.448" stroke-width="1"></path></g><g id="group_4"><path id="vector_20" stroke="#baaec4" stroke-linecap="round" stroke-linejoin="round" d="m332.962 334.788 13.546 13.544" stroke-width="1"></path><path id="vector_21" stroke="#baaec4" stroke-linecap="round" stroke-linejoin="round" d="m332.962 348.332 13.546 -13.544" stroke-width="1"></path></g><g id="group_5"><path id="vector_22" stroke="#baaec4" stroke-linecap="round" stroke-linejoin="round" d="m13.844 281.99 6.908 6.91" stroke-width="1"></path><path id="vector_23" stroke="#baaec4" stroke-linecap="round" stroke-linejoin="round" d="m13.844 288.9 6.908 -6.91" stroke-width="1"></path></g><path id="vector_24" stroke="#baaec4" stroke-linecap="round" stroke-linejoin="round" d="m284.826 121.324 5.924 9.768 6.964 -14.592" stroke-width="1"></path></g><g id="astronaut"><g id="group_6"><path id="vector_25" stroke="#baaec4" stroke-linecap="round" stroke-linejoin="round" d="M241.19 208.868a13.44 13.44 0 0 0 -0.054 -8.012l-9.916 -31.064" stroke-width="1"></path><path id="vector_26" stroke="#baaec4" stroke-linecap="round" stroke-linejoin="round" d="m139.076 203.086 14.122 44.248c1.792 5.612 7.756 8.768 13.292 6.954l5.182 -1.698" stroke-width="1"></path><path id="vector_27" stroke="#baaec4" stroke-linecap="round" stroke-linejoin="round" d="M136.992 133.192c-0.23 0.38 -0.44 0.774 -0.632 1.176l-8.32 16.346a18.788 18.788 0 0 0 -1.138 14.23l4.008 12.56" stroke-width="1"></path><path id="vector_28" fill="#f48250" d="M214.138 116.284a10.58 10.58 0 0 0 -5.93 -6.526c-0.044 9.512 -4.232 18.77 -11.39 25.75l3.368 10.836a19.948 19.948 0 0 1 4.94 -0.91l17.922 -1.238 -8.91 -27.912Z" stroke-width="1"></path><path id="vector_29" fill="#f48250" d="m238.978 194.104 -7.76 -24.312 -2.63 0.182c4.79 15.174 8.04 25.684 10.98 34.272a20.324 20.324 0 0 0 -0.59 -10.142Z" stroke-width="1"></path><path id="vector_30" fill="#f48250" d="m154.752 193.526 -2.766 1.686 8.97 28.098a16.244 16.244 0 0 0 5.738 8.084c-2.686 -9.364 -6.37 -20.526 -11.942 -37.868Z" stroke-width="1"></path><path id="vector_31" fill="#f48250" d="M160.73 147.006c-8.51 -1.34 -16.198 -5.336 -21.706 -11.364a20.36 20.36 0 0 0 -1.168 15.306l5.962 18.68 15.062 -9.186a19.914 19.914 0 0 1 5.368 -2.65l-3.518 -10.786Z" stroke-width="1"></path><path id="vector_32" stroke="#baaec4" stroke-linecap="round" stroke-linejoin="round" d="m223.048 144.2 -8.91 -27.914a10.58 10.58 0 0 0 -5.93 -6.526" stroke-width="1"></path><path id="vector_33" stroke="#baaec4" stroke-linecap="round" stroke-linejoin="round" d="M239.568 204.246a20.332 20.332 0 0 0 -0.59 -10.144l-7.76 -24.312" stroke-width="1"></path><path id="vector_34" stroke="#baaec4" stroke-linecap="round" stroke-linejoin="round" d="m151.986 195.212 8.97 28.098a16.26 16.26 0 0 0 5.738 8.086" stroke-width="1"></path><path id="vector_35" stroke="#baaec4" stroke-linecap="round" stroke-linejoin="round" d="M139.024 135.642a20.36 20.36 0 0 0 -1.168 15.306l5.962 18.68" stroke-width="1"></path></g><path id="vector_36" stroke="#baaec4" stroke-linecap="round" stroke-linejoin="round" d="M196.82 135.512c-9.41 9.178 -23.104 13.54 -36.09 11.494l3.52 10.786 35.936 -11.446 -3.368 -10.834h0.002Z" stroke-width="1"></path><path id="vector_37" stroke="#baaec4" stroke-linecap="round" stroke-linejoin="round" d="M206.676 99.75c-5.95 -18.682 -27.488 -28.502 -48.106 -21.936 -20.62 6.568 -32.512 27.034 -26.56 45.716 5.948 18.68 27.486 28.502 48.106 21.934 20.62 -6.566 32.51 -27.034 26.56 -45.714Z" stroke-width="1"></path><path id="vector_38" fill="#d6587e" d="M193.796 89.22c-18.116 -5.206 -45.6 3.548 -57.37 18.27l11.126 34.936c20.112 11.474 47.598 2.72 57.37 -18.272L193.796 89.22Zm-46.688 18.62s0.648 6.376 3.174 13.276c2.966 8.108 7.146 12.6 7.146 12.6 -9.882 -4.744 -14.228 -15.634 -10.32 -25.876Z" stroke-width="1"></path><path id="vector_39" stroke="#baaec4" stroke-linecap="round" stroke-linejoin="round" d="M193.796 89.22c-18.116 -5.206 -45.6 3.548 -57.37 18.27l11.126 34.936c20.112 11.474 47.598 2.72 57.37 -18.272L193.796 89.22Z" stroke-width="1"></path><path id="vector_40" stroke="#baaec4" stroke-linecap="round" stroke-linejoin="round" d="M147.108 107.842c-3.908 10.242 0.436 21.134 10.318 25.876 0 0 -4.178 -4.49 -7.146 -12.6 -2.524 -6.9 -3.172 -13.276 -3.172 -13.276Z" stroke-width="1"></path><path id="vector_41" stroke="#baaec4" stroke-linecap="round" stroke-linejoin="round" d="M130.592 116.438a7.236 7.236 0 0 0 -5.818 7.094c0 5.274 5.444 8.722 10.18 6.606a32.542 32.542 0 0 1 -4.362 -13.7Z" stroke-width="1"></path><path id="vector_42" stroke="#baaec4" stroke-linecap="round" stroke-linejoin="round" d="m129.79 116.644 -6.504 -20.198" stroke-width="1"></path><path id="vector_43" stroke="#baaec4" stroke-linecap="round" stroke-linejoin="round" d="M122.242 89.808a3.4 3.4 0 1 0 0 6.804 3.4 3.4 0 0 0 0 -6.804Z" stroke-width="1"></path><g id="group_7"><path id="vector_44" stroke="#baaec4" stroke-linecap="round" stroke-linejoin="round" d="m136.426 107.49 -2.662 -8.36" stroke-width="1"></path><path id="vector_45" stroke="#baaec4" stroke-linecap="round" stroke-linejoin="round" d="m191.134 80.86 2.662 8.36" stroke-width="1"></path></g><path id="vector_46" fill="#d6587e" d="M217.918 342.904a8.732 8.732 0 0 1 -4.586 1.974l-17.63 2.098 -8.888 2.83a15.022 15.022 0 0 0 -9.754 18.87l46.876 -14.928 -1.814 -5.698a9.014 9.014 0 0 0 -4.202 -5.148l-0.002 0.002Z" stroke-width="1"></path><path id="vector_47" stroke="#baaec4" stroke-linecap="round" stroke-linejoin="round" d="M217.918 342.904a8.732 8.732 0 0 1 -4.586 1.974l-17.63 2.098 -8.888 2.83a15.022 15.022 0 0 0 -9.754 18.87l46.876 -14.928 -1.814 -5.698a9.014 9.014 0 0 0 -4.202 -5.148l-0.002 0.002Z" stroke-width="1"></path><path id="vector_48" fill="#d6587e" d="m294.028 315.28 -10.038 3.198 -14.544 8.146a8.754 8.754 0 0 1 -4.83 1.106 9.006 9.006 0 0 0 -0.408 6.536l1.814 5.698 46.876 -14.928a15.022 15.022 0 0 0 -18.87 -9.754v-0.002Z" stroke-width="1"></path><path id="vector_49" stroke="#baaec4" stroke-linecap="round" stroke-linejoin="round" d="m294.028 315.28 -10.038 3.198 -14.544 8.146a8.754 8.754 0 0 1 -4.83 1.106 9.006 9.006 0 0 0 -0.408 6.536l1.814 5.698 46.876 -14.928a15.022 15.022 0 0 0 -18.87 -9.754v-0.002Z" stroke-width="1"></path><path id="vector_50" stroke="#baaec4" stroke-linecap="round" stroke-linejoin="round" d="m81.516 227.042 -3.678 -6.03a9.468 9.468 0 0 1 -1.348 -5.86 11.246 11.246 0 0 0 -2.864 -0.012c-6.724 0.838 -16.344 1.212 -19.646 2.096 -4.116 1.1 -3.52 5.158 -0.344 7.04 1.142 0.676 5.092 1.454 6.394 1.732 -3.78 1.898 -9.36 5.4 -9.786 9.576 -0.426 4.176 1.812 8.564 5.608 10.336 4.11 1.92 9.156 0.762 13.094 -1.57 2.662 -1.578 7.774 -5.132 12.596 -8.522a11.36 11.36 0 0 0 4.048 -5.128 9.472 9.472 0 0 1 -4.074 -3.658Z" stroke-width="1"></path><path id="vector_51" stroke="#baaec4" stroke-linecap="round" stroke-linejoin="round" d="M151.32 182.802c-2.708 -8.506 0.598 -17.488 7.544 -22.35l-77.856 47.48a9.516 9.516 0 0 0 -3.17 13.08l3.678 6.03a9.518 9.518 0 0 0 13.08 3.17l60.142 -36.678 -3.418 -10.732Z" stroke-width="1"></path><path id="vector_52" stroke="#baaec4" stroke-linecap="round" stroke-linejoin="round" d="m81.01 207.932 13.586 22.28" stroke-width="1"></path><path id="vector_53" stroke="#baaec4" stroke-linecap="round" stroke-linejoin="round" d="m110.846 220.302 -13.588 -22.28" stroke-width="1"></path><path id="vector_54" stroke="#baaec4" stroke-linecap="round" stroke-linejoin="round" d="m89.134 202.978 13.586 22.278" stroke-width="1"></path><path id="vector_55" stroke="#baaec4" stroke-linecap="round" stroke-linejoin="round" d="M336.936 144.38c-2.78 -3.132 -9.314 -2.692 -13.462 -2.008 0.884 -0.992 3.608 -3.938 4.132 -5.156 1.456 -3.386 -0.434 -7.02 -4.388 -5.496 -3.168 1.222 -11.11 6.556 -17.006 9.826 -0.83 0.46 -1.586 1.018 -2.26 1.654 1.84 2.608 1.654 4.022 2.198 11.908a9.44 9.44 0 0 1 -1.296 5.482 11.37 11.37 0 0 0 7.13 2.36c5.834 -0.086 11.978 -0.21 15.026 -0.496 4.53 -0.422 9.264 -2.448 11.45 -6.416 2.018 -3.664 1.256 -8.528 -1.524 -11.66Z" stroke-width="1"></path><path id="vector_56" stroke="#baaec4" stroke-linecap="round" stroke-linejoin="round" d="m306.15 155.106 -0.49 -7.096a9.49 9.49 0 0 0 -10.122 -8.814l-90.302 6.232c8.81 -0.446 17.16 5.046 19.962 13.846l3.408 10.7 68.73 -4.746a9.492 9.492 0 0 0 8.816 -10.12h-0.002Z" stroke-width="1"></path><path id="vector_57" stroke="#baaec4" stroke-linecap="round" stroke-linejoin="round" d="m297.336 165.23 -1.798 -26.034" stroke-width="1"></path><path id="vector_58" stroke="#baaec4" stroke-linecap="round" stroke-linejoin="round" d="m287.866 165.882 -1.798 -26.032" stroke-width="1"></path><path id="vector_59" stroke="#baaec4" stroke-linecap="round" stroke-linejoin="round" d="m276.6 140.504 1.798 26.032" stroke-width="1"></path><path id="vector_60" stroke="#baaec4" stroke-linecap="round" stroke-linejoin="round" d="M250.486 230.672c-9.248 -18.624 -12.13 -30.084 -25.288 -71.398 -3.336 -10.476 -14.534 -16.264 -25.01 -12.928l-35.938 11.446c-10.476 3.336 -16.264 14.534 -12.928 25.01 14.33 44.994 18.102 54.03 21.672 77.854" stroke-width="1"></path><path id="vector_61" stroke="#baaec4" stroke-linecap="round" stroke-linejoin="round" d="M174.018 267.928c2.008 15.02 4.256 36.068 8.504 71.77a8.788 8.788 0 0 0 9.762 7.686l21.048 -2.504a8.786 8.786 0 0 0 7.686 -9.76l-9.622 -80.856c-0.436 -3.672 4.494 -5.276 6.302 -2.05l39.792 71.042a8.786 8.786 0 0 0 11.958 3.372l18.494 -10.358a8.786 8.786 0 0 0 3.372 -11.958c-19.564 -34.928 -30.446 -53.69 -37.674 -67.474" stroke-width="1"></path><path id="vector_62" stroke="#baaec4" stroke-linecap="round" stroke-linejoin="round" d="m291.312 304.308 -33.822 18.944" stroke-width="1"></path><path id="vector_63" stroke="#baaec4" stroke-linecap="round" stroke-linejoin="round" d="m182.472 339.278 38.494 -4.58" stroke-width="1"></path><path id="vector_64" stroke="#baaec4" stroke-linecap="round" stroke-linejoin="round" d="m218.79 316.414 -38.494 4.58" stroke-width="1"></path><path id="vector_65" stroke="#baaec4" stroke-linecap="round" stroke-linejoin="round" d="m181.384 330.136 38.494 -4.58" stroke-width="1"></path><path id="vector_66" stroke="#baaec4" stroke-linecap="round" stroke-linejoin="round" d="m253.196 315.588 33.822 -18.944" stroke-width="1"></path><path id="vector_67" stroke="#baaec4" stroke-linecap="round" stroke-linejoin="round" d="m282.726 288.98 -33.822 18.944" stroke-width="1"></path><path id="vector_68" fill="#d6587e" d="M231.308 170.732a1.96 1.96 0 0 0 -2.77 0.048c-4.426 4.582 -10.064 8.22 -16.374 9.78 -0.124 -1.628 -0.418 -2.294 -1.62 -6.054a11.094 11.094 0 0 0 -9.02 -7.614 52.604 52.604 0 0 0 2.164 -21.232 1.96 1.96 0 0 0 -3.898 0.402 48.634 48.634 0 0 1 -2.466 21.044 10.4 10.4 0 0 0 -0.718 0.204c-16.594 5.292 -15.764 4.94 -17.176 5.762a82.952 82.952 0 0 1 -14.744 -15.7 1.958 1.958 0 1 0 -3.184 2.284 86.76 86.76 0 0 0 14.91 16.004 11.08 11.08 0 0 0 -1.952 10.36c0.942 2.952 1.316 4.584 2.458 6.3 -6.138 2.782 -16.212 4.76 -21.988 2.04 -2.346 -1.104 -4.014 2.44 -1.67 3.544 7.32 3.446 19 1.1 26.556 -2.634a11.068 11.068 0 0 0 9.708 1.462l14.95 -4.772a11.08 11.08 0 0 0 7.222 -7.284c7.482 -1.518 14.27 -5.598 19.658 -11.176a1.96 1.96 0 0 0 -0.048 -2.77l0.002 0.002Z" stroke-width="1"></path><path id="vector_69" stroke="#baaec4" stroke-linecap="round" stroke-linejoin="round" d="M231.308 170.732a1.96 1.96 0 0 0 -2.77 0.048c-4.426 4.582 -10.064 8.22 -16.374 9.78 -0.124 -1.628 -0.418 -2.294 -1.62 -6.054a11.094 11.094 0 0 0 -9.02 -7.614 52.604 52.604 0 0 0 2.164 -21.232 1.96 1.96 0 0 0 -3.898 0.402 48.634 48.634 0 0 1 -2.466 21.044 10.4 10.4 0 0 0 -0.718 0.204c-16.594 5.292 -15.764 4.94 -17.176 5.762a82.952 82.952 0 0 1 -14.744 -15.7 1.958 1.958 0 1 0 -3.184 2.284 86.76 86.76 0 0 0 14.91 16.004 11.08 11.08 0 0 0 -1.952 10.36c0.942 2.952 1.316 4.584 2.458 6.3 -6.138 2.782 -16.212 4.76 -21.988 2.04 -2.346 -1.104 -4.014 2.44 -1.67 3.544 7.32 3.446 19 1.1 26.556 -2.634a11.068 11.068 0 0 0 9.708 1.462l14.95 -4.772a11.08 11.08 0 0 0 7.222 -7.284c7.482 -1.518 14.27 -5.598 19.658 -11.176a1.96 1.96 0 0 0 -0.048 -2.77l0.002 0.002Z" stroke-width="1"></path><g id="group_8"><path id="vector_70" fill="#d6587e" d="M185.214 216.44a8.226 8.226 0 0 0 -4.09 15.364c0.25 -1.976 0.524 -4.126 0.828 -6.474a3.246 3.246 0 0 1 6.438 0.84c-0.3 2.306 -0.57 4.426 -0.82 6.378a8.228 8.228 0 0 0 -2.356 -16.108Z" stroke-width="1"></path><path id="vector_71" stroke="#baaec4" stroke-linecap="round" stroke-linejoin="round" d="M187.57 232.548a8.228 8.228 0 1 0 -6.448 -0.744" stroke-width="1"></path><path id="vector_72" stroke="#baaec4" stroke-linecap="round" stroke-linejoin="round" d="M185.59 222.53a3.25 3.25 0 0 0 -3.638 2.8c-2.388 18.344 -2.8 24.61 -5.378 30.122 -7.472 15.992 -25.75 7.218 -23.984 -10.022l-3.82 -11.968c-5.278 14.262 -2.298 24.97 3.676 31.148 4.368 4.514 10.658 6.626 16.45 5.386 5.598 -1.198 10.668 -5.608 13.558 -11.794 2.984 -6.384 3.374 -12.374 5.934 -32.032a3.246 3.246 0 0 0 -2.8 -3.638l0.002 -0.002Z" stroke-width="1"></path><path id="vector_73" stroke="#baaec4" stroke-linecap="round" stroke-linejoin="round" d="m152.592 245.43 -6.484 -0.432" stroke-width="1"></path><path id="vector_74" stroke="#baaec4" stroke-linecap="round" stroke-linejoin="round" d="m146.38 251.982 6.408 -1.034" stroke-width="1"></path><path id="vector_75" stroke="#baaec4" stroke-linecap="round" stroke-linejoin="round" d="m148.388 258.63 5.976 -2.54" stroke-width="1"></path><path id="vector_76" stroke="#baaec4" stroke-linecap="round" stroke-linejoin="round" d="m152.132 264.274 4.982 -4.178" stroke-width="1"></path><path id="vector_77" stroke="#baaec4" stroke-linecap="round" stroke-linejoin="round" d="m158.17 268.682 3.196 -5.7" stroke-width="1"></path><path id="vector_78" stroke="#baaec4" stroke-linecap="round" stroke-linejoin="round" d="m166.42 263.814 -0.124 6.514" stroke-width="1"></path><path id="vector_79" stroke="#baaec4" stroke-linecap="round" stroke-linejoin="round" d="m171.004 262.23 3.174 5.598" stroke-width="1"></path><path id="vector_80" stroke="#baaec4" stroke-linecap="round" stroke-linejoin="round" d="m174.77 258.522 5.354 3.664" stroke-width="1"></path><path id="vector_81" stroke="#baaec4" stroke-linecap="round" stroke-linejoin="round" d="m177.328 253.646 6.32 1.606" stroke-width="1"></path><path id="vector_82" stroke="#baaec4" stroke-linecap="round" stroke-linejoin="round" d="m179.04 247.006 6.402 1.07" stroke-width="1"></path><path id="vector_83" stroke="#baaec4" stroke-linecap="round" stroke-linejoin="round" d="m180.018 240.182 6.444 0.782" stroke-width="1"></path><path id="vector_84" stroke="#baaec4" stroke-linecap="round" stroke-linejoin="round" d="m180.898 233.416 6.446 0.77" stroke-width="1"></path><path id="vector_85" stroke="#baaec4" stroke-linecap="round" stroke-linejoin="round" d="m181.712 227.176 6.472 0.57" stroke-width="1"></path></g><g id="group_9"><path id="vector_86" stroke="#baaec4" stroke-linecap="round" stroke-linejoin="round" d="M228.522 216.808a8.226 8.226 0 1 0 -4.926 4.216" stroke-width="1"></path><path id="vector_87" stroke="#baaec4" stroke-linecap="round" stroke-linejoin="round" d="M263.274 208.392c-3.75 -5.442 -19.634 -17.856 -27.034 -22.878l3.322 10.414c7.188 5.434 15.966 12.664 18.366 16.148 2.622 3.804 3.766 7.002 3.502 9.776 -0.606 6.324 -8.332 11.146 -17.594 7.66 -8.152 -3.07 -13.81 -10.902 -19.272 -17.574a3.242 3.242 0 1 0 -5.022 4.11c6.24 7.628 12.272 15.872 22.008 19.538 13.038 4.91 25.304 -2.276 26.342 -13.116 0.418 -4.358 -1.094 -8.962 -4.618 -14.078Z" stroke-width="1"></path><path id="vector_88" stroke="#baaec4" stroke-linecap="round" stroke-linejoin="round" d="m219.98 216.584 4.94 -4.216" stroke-width="1"></path><path id="vector_89" stroke="#baaec4" stroke-linecap="round" stroke-linejoin="round" d="m224.358 221.95 4.856 -4.31" stroke-width="1"></path><path id="vector_90" stroke="#baaec4" stroke-linecap="round" stroke-linejoin="round" d="m228.89 226.958 4.594 -4.586" stroke-width="1"></path><path id="vector_91" stroke="#baaec4" stroke-linecap="round" stroke-linejoin="round" d="m234.9 232.05 3.92 -5.184" stroke-width="1"></path><path id="vector_92" stroke="#baaec4" stroke-linecap="round" stroke-linejoin="round" d="m242.602 235.954 2.15 -6.126" stroke-width="1"></path><path id="vector_93" stroke="#baaec4" stroke-linecap="round" stroke-linejoin="round" d="m250.864 237.156 0.324 -6.53" stroke-width="1"></path><path id="vector_94" stroke="#baaec4" stroke-linecap="round" stroke-linejoin="round" d="m259.194 234.966 -2.842 -5.846" stroke-width="1"></path><path id="vector_95" stroke="#baaec4" stroke-linecap="round" stroke-linejoin="round" d="m265.326 229.458 -5.252 -3.838" stroke-width="1"></path><path id="vector_96" stroke="#baaec4" stroke-linecap="round" stroke-linejoin="round" d="m267.96 220.148 -6.522 0.2" stroke-width="1"></path><path id="vector_97" stroke="#baaec4" stroke-linecap="round" stroke-linejoin="round" d="m265.432 211.926 -5.612 3.274" stroke-width="1"></path><path id="vector_98" stroke="#baaec4" stroke-linecap="round" stroke-linejoin="round" d="m260.776 205.458 -4.448 4.688" stroke-width="1"></path><path id="vector_99" stroke="#baaec4" stroke-linecap="round" stroke-linejoin="round" d="m255.192 200.232 -4.132 4.95" stroke-width="1"></path><path id="vector_100" stroke="#baaec4" stroke-linecap="round" stroke-linejoin="round" d="m249.344 195.344 -4.24 4.89" stroke-width="1"></path><path id="vector_101" stroke="#baaec4" stroke-linecap="round" stroke-linejoin="round" d="m243.384 190.688 -3.82 5.24" stroke-width="1"></path></g></g></g></svg>