<svg xmlns="http://www.w3.org/2000/svg" fill="none" viewBox="-0.5 -0.5 200 200" id="Upload-01--Streamline-Bangalore.svg" height="200" width="200"><desc>Upload 01 Streamline Illustration: https://streamlinehq.com</desc><g id="upload-01--interface-upload-cloud-load"><g id="color2"><path id="vector" fill="#f48250" d="M125.09040499999999 39.999995h-13.44245v9.718164999999999H93.85636000000001v-9.718164999999999h-13.44245l22.328795 -28.98435 22.3477 28.98435Z" stroke-width="1"></path></g><g id="color1"><path id="vector_2" fill="#d6587e" d="M49.8794495 58.150884500000004c0.000199 0.430238 -0.12726050000000003 0.8508245 -0.36616 1.2086264999999998 -0.23879999999999998 0.35780199999999995 -0.578493 0.6368 -0.975896 0.801572 -0.39740299999999995 0.164772 -0.834805 0.207955 -1.2567845 0.124176 -0.42197949999999995 -0.0838785 -0.8096315 -0.290938 -1.1139025 -0.5951095 -0.304271 -0.304072 -0.5115295 -0.6916245000000001 -0.595607 -1.113604 -0.083978 -0.42197949999999995 -0.040994 -0.8593815 0.1236785 -1.2568840000000001 0.164573 -0.39750250000000004 0.443372 -0.7371955 0.8010745 -0.976294 0.3577025 -0.238999 0.778289 -0.366558 1.208527 -0.366558 0.5766025 0 1.129723 0.2289495 1.5375735 0.6367005 0.40795 0.4076515 0.6371979999999999 0.9606725 0.6374965 1.5373744999999999Z" stroke-width="1"></path><path id="vector_3" fill="#d6587e" d="M68.91767999999999 99.19752v6.71227h3.6685649999999996v-6.71227h-3.6685649999999996Z" stroke-width="1"></path><path id="vector_4" fill="#d6587e" d="M74.0420295 99.19752v6.71227h3.66757v-6.71227h-3.66757Z" stroke-width="1"></path><path id="vector_5" fill="#d6587e" d="M79.1563295 99.19752v6.71227h3.6775200000000003v-6.71227h-3.6775200000000003Z" stroke-width="1"></path><path id="vector_6" fill="#d6587e" d="M84.27062950000001 99.19752v6.71227h3.686475v-6.71227h-3.686475Z" stroke-width="1"></path><path id="vector_7" fill="#d6587e" d="M89.39378500000001 99.19752v6.71227h3.68747v-6.71227h-3.68747Z" stroke-width="1"></path><path id="vector_8" fill="#d6587e" d="M94.518035 99.19752v6.71227h3.686475v-6.71227h-3.686475Z" stroke-width="1"></path><path id="vector_9" fill="#d6587e" d="M99.642285 99.19752v6.71227h3.686475v-6.71227h-3.686475Z" stroke-width="1"></path><path id="vector_10" fill="#d6587e" d="M104.76554 99.19752v6.71227h3.686475v-6.71227h-3.686475Z" stroke-width="1"></path></g><g id="line"><path id="vector_11" stroke="#a482a4" stroke-linecap="round" stroke-linejoin="round" d="M149.17736499999998 24.969524999999997v10.776845" stroke-width="1"></path><path id="vector_12" stroke="#a482a4" stroke-linecap="round" stroke-linejoin="round" d="M154.566285 30.3674h-10.776845" stroke-width="1"></path><path id="vector_13" stroke="#a482a4" stroke-linecap="round" stroke-linejoin="round" d="M166.25057 126.02669999999999V55.59861c0.000995 -0.7725179999999999 -0.150245 -1.537673 -0.444765 -2.2516849999999997 -0.29551499999999997 -0.7139125000000001 -0.72834 -1.3626525 -1.274595 -1.9090070000000001 -0.546255 -0.546255 -1.194995 -0.9793784999999999 -1.90841 -1.2744955 -0.71441 -0.29511699999999996 -1.479565 -0.4464565 -2.2516849999999997 -0.4452625H45.114295c-0.7725179999999999 -0.0012935 -1.5378720000000001 0.1499465 -2.251884 0.44496399999999997 -0.714012 0.29511699999999996 -1.362752 0.728141 -1.9091065 1.2744955 -0.5463545000000001 0.546255 -0.9793784999999999 1.1950945 -1.2744955 1.9091065 -0.2950175 0.714012 -0.44625750000000003 1.4792664999999998 -0.44496399999999997 2.251884v72.834" stroke-width="1"></path><path id="vector_14" stroke="#a482a4" stroke-linecap="round" stroke-linejoin="round" d="M166.25057 66.5455005H39.252750000000006" stroke-width="1"></path><path id="vector_15" stroke="#a482a4" stroke-linecap="round" stroke-linejoin="round" d="M49.8792505 58.150884500000004c0.000199 0.430238 -0.127161 0.8508245 -0.3660605 1.2086264999999998 -0.23889950000000001 0.35780199999999995 -0.578493 0.6368 -0.975896 0.801572 -0.39740299999999995 0.164772 -0.834805 0.207955 -1.2567845 0.124176 -0.42197949999999995 -0.0838785 -0.8096315 -0.290938 -1.1139025 -0.5951095 -0.3043705 -0.304072 -0.511629 -0.6916245000000001 -0.595607 -1.113604 -0.083978 -0.42197949999999995 -0.040994 -0.8593815 0.12357900000000001 -1.2568840000000001 0.1646725 -0.39750250000000004 0.443372 -0.7371955 0.801174 -0.976294 0.3577025 -0.238999 0.7781895 -0.366558 1.2084275 -0.366558 0.576702 0 1.1298225 0.2289495 1.537673 0.6367005 0.4078505 0.4076515 0.6371979999999999 0.9606725 0.637397 1.5373744999999999v0Z" stroke-width="1"></path><path id="vector_16" stroke="#a482a4" stroke-linecap="round" stroke-linejoin="round" d="M56.439385 58.150884500000004c0 0.4299395 -0.1274595 0.850327 -0.36635900000000005 1.2078305 -0.23889950000000001 0.35750350000000003 -0.578493 0.636203 -0.975697 0.8006765 -0.3973035 0.164573 -0.834407 0.2076565 -1.2560879999999999 0.123778 -0.4217805 -0.0838785 -0.809134 -0.290938 -1.113206 -0.5950099999999999s-0.5111315000000001 -0.6914254999999999 -0.5950099999999999 -1.113206c-0.0838785 -0.42168100000000003 -0.040795000000000005 -0.8587845 0.1236785 -1.2560879999999999 0.164573 -0.3973035 0.4432725 -0.7367975 0.8007759999999999 -0.975697 0.35750350000000003 -0.23889950000000001 0.777891 -0.36635900000000005 1.2078305 -0.36635900000000005 0.5766025 0 1.1296235 0.22904899999999997 1.5373744999999999 0.6367005 0.4076515 0.407751 0.6367005 0.960772 0.6367005 1.5373744999999999v0Z" stroke-width="1"></path><path id="vector_17" stroke="#a482a4" stroke-linecap="round" stroke-linejoin="round" d="M63.038225 58.150884500000004c0.000199 0.430238 -0.127161 0.8509239999999999 -0.36616 1.2087260000000002 -0.23889950000000001 0.35780199999999995 -0.5785925000000001 0.6368 -0.9760949999999999 0.801572 -0.39740299999999995 0.1646725 -0.8349044999999999 0.2078555 -1.2568840000000001 0.123977 -0.42197949999999995 -0.0838785 -0.8096315 -0.2910375 -1.1139025 -0.5953085 -0.304271 -0.304271 -0.51143 -0.6919230000000001 -0.5953085 -1.1139025 -0.0838785 -0.42207900000000004 -0.040795000000000005 -0.859481 0.123977 -1.2569835 0.164772 -0.39740299999999995 0.4436705 -0.737096 0.801572 -0.9760949999999999 0.35780199999999995 -0.23889950000000001 0.778488 -0.36625949999999996 1.2087260000000002 -0.3660605 0.28556499999999996 0 0.5682445 0.056217500000000004 0.8320190000000001 0.1654685 0.2637745 0.109251 0.50347 0.2693465 0.7053555 0.47123200000000004 0.2018855 0.2018855 0.361981 0.44158099999999995 0.47123200000000004 0.7053555 0.109251 0.2637745 0.1654685 0.546454 0.1654685 0.8320190000000001v0Z" stroke-width="1"></path><path id="vector_18" stroke="#a482a4" stroke-linecap="round" stroke-linejoin="round" d="M144.54564 108.08386499999999H66.7813155V97.023445h77.7643245v11.060419999999999Z" stroke-width="1"></path><path id="vector_19" stroke="#a482a4" stroke-linecap="round" stroke-linejoin="round" d="M68.91767999999999 99.19752v6.71227h3.6685649999999996v-6.71227h-3.6685649999999996Z" stroke-width="1"></path><path id="vector_20" stroke="#a482a4" stroke-linecap="round" stroke-linejoin="round" d="M74.0418305 99.19752v6.71227h3.66757v-6.71227h-3.66757Z" stroke-width="1"></path><path id="vector_21" stroke="#a482a4" stroke-linecap="round" stroke-linejoin="round" d="M79.15623000000001 99.19752v6.71227h3.6775200000000003v-6.71227h-3.6775200000000003Z" stroke-width="1"></path><path id="vector_22" stroke="#a482a4" stroke-linecap="round" stroke-linejoin="round" d="M84.27053000000001 99.19752v6.71227h3.686475v-6.71227h-3.686475Z" stroke-width="1"></path><path id="vector_23" stroke="#a482a4" stroke-linecap="round" stroke-linejoin="round" d="M89.39378500000001 99.19752v6.71227h3.68747v-6.71227h-3.68747Z" stroke-width="1"></path><path id="vector_24" stroke="#a482a4" stroke-linecap="round" stroke-linejoin="round" d="M94.51793550000001 99.19752v6.71227h3.686475v-6.71227h-3.686475Z" stroke-width="1"></path><path id="vector_25" stroke="#a482a4" stroke-linecap="round" stroke-linejoin="round" d="M99.642285 99.19752v6.71227h3.686475v-6.71227h-3.686475Z" stroke-width="1"></path><path id="vector_26" stroke="#a482a4" stroke-linecap="round" stroke-linejoin="round" d="M104.76554 99.19752v6.71227h3.686475v-6.71227h-3.686475Z" stroke-width="1"></path><path id="vector_27" stroke="#a482a4" stroke-linecap="round" stroke-linejoin="round" d="M93.85636000000001 49.718160000000005v-9.718164999999999h-13.44245l22.328795 -29.003255 22.3477 29.003255h-13.44245v9.718164999999999" stroke-width="1"></path><path id="vector_28" stroke="#a482a4" stroke-linecap="round" stroke-linejoin="round" d="M185.478945 80.93339950000001v32.2359105" stroke-width="1"></path><path id="vector_29" stroke="#a482a4" stroke-linecap="round" stroke-linejoin="round" d="m180.601455 90.0276 4.87749 -9.151015 4.8784849999999995 9.151015" stroke-width="1"></path><path id="vector_30" stroke="#a482a4" stroke-linecap="round" stroke-linejoin="round" d="M5.80682 93.6295995h6.428695" stroke-width="1"></path><path id="vector_31" stroke="#a482a4" stroke-linecap="round" stroke-linejoin="round" d="M23.636225 93.600645h6.428695" stroke-width="1"></path><path id="vector_32" stroke="#a482a4" stroke-linecap="round" stroke-linejoin="round" d="M17.916965 81.48164449999999v6.428695" stroke-width="1"></path><path id="vector_33" stroke="#a482a4" stroke-linecap="round" stroke-linejoin="round" d="M17.944825 99.3299545v6.428595499999999" stroke-width="1"></path><path id="vector_34" stroke="#a482a4" stroke-linecap="round" stroke-linejoin="round" d="m9.3420351 85.0554855 4.5571199 4.5371999999999995" stroke-width="1"></path><path id="vector_35" stroke="#a482a4" stroke-linecap="round" stroke-linejoin="round" d="m21.972585 97.6472105 4.556105 4.5372995000000005" stroke-width="1"></path><path id="vector_36" stroke="#a482a4" stroke-linecap="round" stroke-linejoin="round" d="m26.490879999999997 85.01787449999999 -4.5371999999999995 4.556105" stroke-width="1"></path><path id="vector_37" stroke="#a482a4" stroke-linecap="round" stroke-linejoin="round" d="m13.899154999999999 97.666215 -4.538234800000001 4.5371999999999995" stroke-width="1"></path><path id="vector_38" stroke="#a482a4" stroke-linecap="round" stroke-linejoin="round" d="M42.202925 169.568895c-0.8869429999999999 1.67359 -2.014676 3.208875 -3.34718 4.556105" stroke-width="1"></path><path id="vector_39" stroke="#a482a4" stroke-linecap="round" stroke-linejoin="round" d="M76.80206 146.21923c2.3844179999999997 -3.0248 5.41479 -5.478470000000001 8.86943 -7.180915 3.4545405000000002 -1.702445 7.2460875 -2.611875 11.0973345 -2.66063 3.8515455 -0.048755 7.6643855 0.763165 11.1618105 2.37805 3.4964299999999997 1.614885 6.5878950000000005 3.98995 9.04853 6.953060000000001" stroke-width="1"></path><path id="vector_40" stroke="#a482a4" stroke-linecap="round" stroke-linejoin="round" d="M159.1005 135.57472c0.337305 -1.867615 1.0706200000000001 -3.6407049999999996 2.150195 -5.20186 1.08057 -1.56016 2.4815300000000002 -2.87157 4.110345000000001 -3.8456750000000004 1.62981 -0.97311 3.447675 -1.587025 5.333200000000001 -1.799955 1.88652 -0.21193499999999998 3.795925 -0.01791 5.600854999999999 0.5681449999999999 1.8039349999999998 0.58705 3.4626 1.55419 4.862564999999999 2.8347550000000004 1.3999650000000001 1.28156 2.50939 2.84769 3.25365 4.5929199999999994 0.745255 1.746225 1.10644 3.630755 1.0616649999999999 5.52822 -0.04378 1.897465 -0.494515 3.76309 -1.320365 5.471505 2.255665 1.20793 4.24069 2.86361 5.833685 4.86555 1.592995 2.00194 2.76013 4.30835 3.43076 6.77794 0.6696350000000001 2.4685949999999997 0.828835 5.04863 0.46764999999999995 7.5819 -0.36218 2.532275 -1.2377799999999999 4.964055 -2.57307 7.147085 -1.334295 2.18303 -3.101415 4.06955 -5.1909149999999995 5.545135 -2.0904949999999998 1.4755850000000001 -4.45959 2.50939 -6.963010000000001 3.037735 -2.50342 0.52735 -5.08843 0.5382950000000001 -7.59583 0.03184 -2.5083949999999997 -0.506455 -4.886444999999999 -1.5193649999999999 -6.98888 -2.97704 -3.47255 3.340215 -8.09731 5.216785000000001 -12.9151 5.2416599999999995 -4.818785 0.024875 -9.46245 -1.8049300000000001 -12.96883 -5.109325 -1.31738 1.165145 -2.86361 2.04174 -4.5391900000000005 2.5760549999999998 -1.674585 0.534315 -3.443695 0.713415 -5.19191 0.526355 -1.7482149999999999 -0.18706 -3.43872 -0.7363 -4.9630600000000005 -1.61389 -1.52434 -0.876595 -2.8496799999999998 -2.06164 -3.89045 -3.47852 -2.0407450000000003 4.012835 -5.0944 7.4227 -8.857489999999999 9.892290000000001 -3.76309 2.46959 -8.106265 3.91433 -12.599884 4.189945000000001 -4.4931215 0.27462000000000003 -8.980272999999999 -0.627845 -13.017386 -2.61884 -4.037113000000001 -1.9919899999999997 -7.4840915 -5.002859999999999 -9.99975 -8.736099999999999 -1.794184 1.3134000000000001 -3.9026885 2.130295 -6.1132800000000005 2.3700900000000003 -2.2105914999999996 0.23879999999999998 -4.4451625 -0.10945 -6.478445 -1.00893 -1.5562795 1.9531850000000002 -3.603293 3.457625 -5.9316925 4.359095 -2.328499 0.9024650000000001 -4.854804 1.169125 -7.3204139999999995 0.775105 -2.4657095 -0.395015 -4.7822685 -1.437775 -6.712668000000001 -3.0218149999999997 -1.930499 -1.5840400000000001 -3.4055864999999996 -3.65165 -4.2744205 -5.992884999999999 -2.2326805 2.2725799999999996 -4.9818655 3.97005 -8.0130335 4.950125 -3.031168 0.97908 -6.254371 1.2109150000000002 -9.3944915 0.67461 -3.140021 -0.536305 -6.1038275 -1.8238349999999999 -8.6382915 -3.7531399999999997 -2.5345635 -1.9303 -4.56457245 -4.444665 -5.916867 -7.328175 -1.3522945499999999 -2.884505 -1.9867165 -6.0525850000000005 -1.849108 -9.23559 0.1376085 -3.1830049999999996 1.0431480499999999 -6.28442 2.63934695 -9.041565 1.5961988999999999 -2.75615 3.8357150499999997 -5.0864400000000005 6.52728955 -6.78988 2.6915744999999998 -1.70344 5.755478 -2.731275 8.930125 -2.9939549999999997 -0.6588890000000001 -2.134275 -0.8074425 -4.392925 -0.43362100000000003 -6.59486s1.259471 -4.285465 2.585607 -6.082435c1.3262355 -1.79697 3.0559434999999997 -3.25763 5.049824 -4.26457 1.993781 -1.0059449999999999 4.1962135 -1.53031 6.42969 -1.53031 0.849531 -0.000995 1.69747 0.074625 2.53327 0.22686" stroke-width="1"></path><path id="vector_41" stroke="#a482a4" stroke-linecap="round" stroke-linejoin="round" d="M123.048665 144.327735c-0.26069000000000003 -1.9502 -0.11740999999999999 -3.933235 0.41989 -5.82672s1.457675 -3.65563 2.703415 -5.178975c1.246735 -1.52235 2.79197 -2.77406 4.54118 -3.674535 1.74921 -0.90147 3.6645849999999998 -1.43479 5.62772 -1.565135 1.96413 -0.13134 3.933235 0.142285 5.786919999999999 0.802965 1.853685 0.661675 3.551155 1.696475 4.98893 3.0397250000000002 1.43678 1.344245 2.58302 2.96908 3.36708 4.77401 0.78406 1.8049300000000001 1.189025 3.75115 1.1900199999999999 5.71926" stroke-width="1"></path><path id="vector_42" stroke="#a482a4" stroke-linecap="round" stroke-linejoin="round" d="M150.823095 137.52193499999998c2.243725 -1.155195 4.70834 -1.81687 7.22967 -1.941245 2.5203349999999998 -0.12338 5.03868 0.293525 7.3848899999999995 1.222855" stroke-width="1"></path><path id="vector_43" stroke="#a482a4" stroke-linecap="round" stroke-linejoin="round" d="M35.84985 130.07237c2.796547 -1.70344 5.970796 -2.689485 9.240366 -2.8705749999999997 3.26957 -0.18109 6.533269499999999 0.448745 9.5007575 1.8327900000000001 2.9674880000000003 1.3850399999999998 5.546926 3.4815050000000003 7.5087675 6.103330000000001 1.9618415 2.621825 3.2453914999999998 5.68742 3.736424 8.92515" stroke-width="1"></path><path id="vector_44" stroke="#a482a4" stroke-linecap="round" stroke-linejoin="round" d="M63.0759355 177.982615c-1.6383670000000001 -0.72834 -3.106788 -1.791 -4.311335000000001 -3.119325" stroke-width="1"></path><path id="vector_45" stroke="#a482a4" stroke-linecap="round" stroke-linejoin="round" d="M78.99494050000001 172.9907c-0.8683365000000001 1.41688 -2.0050244999999998 2.649685 -3.346185 3.630755" stroke-width="1"></path><path id="vector_46" stroke="#a482a4" stroke-linecap="round" stroke-linejoin="round" d="M120.23182 174.030475c-0.783065 -1.025845 -1.401955 -2.16711 -1.83478 -3.383" stroke-width="1"></path><path id="vector_47" stroke="#a482a4" stroke-linecap="round" stroke-linejoin="round" d="M142.031275 171.23253499999998c-0.73829 1.7850300000000001 -1.8765699999999998 3.37703 -3.328275 4.651625" stroke-width="1"></path><path id="vector_48" stroke="#a482a4" stroke-linecap="round" stroke-linejoin="round" d="M63.69989999999999 137.332885c1.4143925 -0.64476 2.9507719999999997 -0.97709 4.5050615 -0.9760949999999999 1.5542895 0.00199 3.0899725 0.33830000000000005 4.5030715 0.98505 1.4129995 0.647745 2.6703810000000003 1.591005 3.6865745 2.7670950000000003 1.0162930000000001 1.1760899999999999 1.767717 2.55715 2.2034275 4.048655" stroke-width="1"></path><path id="vector_49" stroke="#a482a4" stroke-linecap="round" stroke-linejoin="round" d="M114.72946999999999 143.32577c1.121365 -1.0059449999999999 2.4407349999999997 -1.7681149999999999 3.873535 -2.2367600000000003 1.431805 -0.468645 2.946195 -0.633815 4.44566 -0.48556" stroke-width="1"></path><path id="vector_50" stroke="#a482a4" stroke-linecap="round" stroke-linejoin="round" d="M134.033465 151.22905500000002c1.0815649999999999 0.217905 2.09746 0.6835650000000001 2.968085 1.3611600000000001" stroke-width="1"></path><path id="vector_51" stroke="#a482a4" stroke-linecap="round" stroke-linejoin="round" d="M136.05630000000002 153.93247c1.10047 -1.843735 2.747195 -3.298425 4.71232 -4.16308 1.9661199999999999 -0.86366 4.15114 -1.093505 6.2535750000000005 -0.657695" stroke-width="1"></path><path id="vector_52" stroke="#a482a4" stroke-linecap="round" stroke-linejoin="round" d="M164.00087499999998 157.73337c0.375115 -1.600955 1.326335 -3.00888 2.67257 -3.9551250000000002 1.34524 -0.9452499999999999 2.991965 -1.364145 4.62675 -1.175095 1.6337899999999999 0.18905 3.141215 0.972115 4.235715 2.20094 1.093505 1.22783 1.6984650000000001 2.81585 1.6984650000000001 4.460585" stroke-width="1"></path><path id="vector_53" stroke="#a482a4" stroke-linecap="round" stroke-linejoin="round" d="M157.87466 155.86177500000002c0.377105 -0.5910299999999999 0.882565 -1.089525 1.477575 -1.459665 0.596005 -0.37013999999999997 1.266635 -0.6019749999999999 1.963135 -0.6775950000000001 0.697495 -0.076615 1.401955 0.00398 2.06363 0.235815 0.661675 0.23283 1.2626549999999999 0.609935 1.75916 1.105445" stroke-width="1"></path><path id="vector_54" stroke="#a482a4" stroke-linecap="round" stroke-linejoin="round" d="M34.228 147.69382000000002c0.9650505 -0.6427700000000001 2.0627345000000004 -1.06067 3.2112629999999998 -1.220865 1.1485285 -0.16119 2.318549 -0.060695 3.422999 0.293525 1.1045495 0.35322499999999996 2.1150715 0.95122 2.9566424999999996 1.74921 0.841571 0.7979900000000001 1.4925 1.7760749999999998 1.9043305 2.85963" stroke-width="1"></path><path id="vector_55" stroke="#a482a4" stroke-linecap="round" stroke-linejoin="round" d="M43.809850000000004 148.52563999999998c0.676202 -0.715405 1.5392649999999999 -1.22783 2.49148 -1.47857 0.9522149999999999 -0.25074 1.955573 -0.22984500000000002 2.896445 0.060695" stroke-width="1"></path><path id="vector_56" stroke="#a482a4" stroke-linecap="round" stroke-linejoin="round" d="M83.117325 165.16403c0.938086 -1.6397599999999999 2.3849155 -2.92928 4.1213895 -3.67354 1.7365735 -0.743265 3.6680675000000003 -0.90147 5.5022505 -0.448745" stroke-width="1"></path><path id="vector_57" stroke="#a482a4" stroke-linecap="round" stroke-linejoin="round" d="M79.48657 161.6278c0.9072410000000001 -0.07363 1.8199545 0.042785 2.679535 0.34228 0.8595805 0.299495 1.6472225 0.775105 2.3123799999999997 1.3969799999999999" stroke-width="1"></path><path id="vector_58" stroke="#a482a4" stroke-linejoin="round" d="M56.628434999999996 18.72988c0 0.4329245 0.128355 0.8561975000000001 0.36884649999999997 1.2161885 0.240591 0.359991 0.582473 0.6404815 0.9824630000000001 0.8062485 0.39999 0.1656675 0.8400785000000001 0.20895 1.2647445 0.124574 0.4245665 -0.08447550000000001 0.8146065 -0.2930275 1.120768 -0.5990894999999999 0.3061615 -0.3061615 0.514614 -0.6962015 0.5990894999999999 -1.1208675000000001 0.08447550000000001 -0.4245665 0.041093500000000005 -0.8647545 -0.124574 -1.2647445 -0.1656675 -0.39999 -0.44625750000000003 -0.7418720000000001 -0.8062485 -0.9823635 -0.359991 -0.2404915 -0.7831645 -0.368946 -1.216089 -0.368946 -0.580085 0.001592 -1.1359915 0.2327305 -1.5461305 0.6428695 -0.4102385 0.4102385 -0.641377 0.9660455 -0.6428695 1.5461305Z" stroke-width="1"></path></g></g></svg>