<svg xmlns="http://www.w3.org/2000/svg" fill="none" viewBox="-0.5 -0.5 200 200" id="Interface-Waiting-01--Streamline-Bangalore.svg" height="200" width="200"><desc>Interface Waiting 01 Streamline Illustration: https://streamlinehq.com</desc><g><g><path fill="#f48250" d="m47.378915 141.35567 88.21073 41.118375L130.20172 194.025l-88.21073 -41.118375 5.387925 -11.550955Z" stroke-width="1"></path><path fill="#f48250" d="m95.26528 38.663709999999995 -5.387925 11.56986 88.19182500000001 41.118375 5.387925 -11.552945000000001 -88.19182500000001 -41.13529Zm35.030965 24.330735 -20.497 -8.809729999999998 1.0945 -2.5710800000000003 20.497 8.809729999999998 -1.0945 2.5710800000000003Z" stroke-width="1"></path></g><g><path fill="#d6587e" d="m130.61763 180.14873 -78.2667 -36.486650000000004a59.267174999999995 59.267174999999995 0 0 1 4.593915 -8.110244999999999c25.78642 11.56986 51.553935 14.934949999999999 77.28363999999999 7.2635a54.525999999999996 54.525999999999996 0 0 1 -3.610855 37.333395Z" stroke-width="1"></path><path fill="#d6587e" d="M169.37287999999998 95.85133499999999c-11.91015 18.659235 -32.8947 27.90378 -51.327075 22.49695 8.072434999999999 1.43678 34.388195 -3.326285 51.327075 -22.49695Z" stroke-width="1"></path></g><g><path stroke="#a482a4" stroke-linecap="round" stroke-linejoin="round" d="M178.50300000000001 39.930345a1.8686099999999999 1.8686099999999999 0 0 1 -2.2367600000000003 1.835775 1.8705999999999998 1.8705999999999998 0 0 1 0.365165 -3.70737 1.867615 1.867615 0 0 1 1.7313 1.1542c0.09353 0.227855 0.14129 0.47163 0.14029499999999998 0.717395Z" stroke-width="1"></path><path stroke="#a482a4" stroke-linecap="round" stroke-linejoin="round" d="m53.844425 62.67306 -1.58802 -4.00786 20.71988 -8.261485 1.606925 4.00786 -20.738785 8.261485Z" stroke-width="1"></path><path stroke="#a482a4" stroke-linecap="round" stroke-linejoin="round" d="m110.975335 38.814949999999996 -0.850725 -2.11736 20.71988 -8.261485 0.850725 2.11736 -20.71988 8.261485Z" stroke-width="1"></path><path stroke="#a482a4" stroke-linecap="round" stroke-linejoin="round" d="M82.35316499999999 27.679904999999998 74.09168 6.960025 79.04478999999999 4.975l8.261485 20.738785 -4.95311 1.9661199999999999Z" stroke-width="1"></path><path stroke="#a482a4" stroke-linecap="round" stroke-linejoin="round" d="m106.211275 84.81081499999999 -8.261485 -20.738785 3.081515 -1.2099199999999999 8.261485 20.71988 -3.081515 1.228825Z" stroke-width="1"></path><path stroke="#a482a4" stroke-linecap="round" stroke-linejoin="round" d="m73.014095 39.476625 -20.49302 -8.809729999999998 1.909405 -4.423769999999999L74.92349999999999 35.052855l-1.909405 4.423769999999999Z" stroke-width="1"></path><path stroke="#a482a4" stroke-linecap="round" stroke-linejoin="round" d="m102.657135 28.058005 -5.36902 -2.30641 8.809729999999998 -20.511924999999998 5.36902 2.30641 -8.809729999999998 20.511924999999998Z" stroke-width="1"></path><path stroke="#a482a4" stroke-linecap="round" stroke-linejoin="round" d="m77.286625 84.508335 -3.4974250000000002 -1.4934949999999998 8.809729999999998 -20.49302 3.4974250000000002 1.4925 -8.809729999999998 20.494015Z" stroke-width="1"></path><path stroke="#a482a4" stroke-linecap="round" stroke-linejoin="round" d="M94.830465 52.535999999999994c-11.741000000000001 25.162555 -3.724285 53.73 17.88413 63.804375s48.642565 -2.15517 60.38257 -27.317725" stroke-width="1"></path><path stroke="#a482a4" stroke-linecap="round" stroke-linejoin="round" d="M178.06918 91.351945 89.877355 50.23357l5.387925 -11.56986 88.19182500000001 41.137280000000004 -5.387925 11.550955Z" stroke-width="1"></path><path stroke="#a482a4" stroke-linecap="round" stroke-linejoin="round" d="M130.61763 180.14873c11.741000000000001 -25.162555 3.724285 -53.73 -17.88413 -63.804375s-48.642565 2.160145 -60.38257 27.317725" stroke-width="1"></path><path stroke="#a482a4" stroke-linecap="round" stroke-linejoin="round" d="m47.378915 141.35567 88.21073 41.118375L130.20172 194.025l-88.21073 -41.118375 5.387925 -11.550955Z" stroke-width="1"></path><path stroke="#a482a4" stroke-linecap="round" stroke-linejoin="round" d="m21.34673 135.627455 -6.560035 13.970795" stroke-width="1"></path><path stroke="#a482a4" stroke-linecap="round" stroke-linejoin="round" d="m25.05211 145.89287000000002 -13.989700000000001 -6.560035" stroke-width="1"></path><path stroke="#a482a4" stroke-linecap="round" stroke-linejoin="round" d="M134.2255 142.811355c-25.729705000000003 7.67543 -51.49722 4.31034 -77.28363999999999 -7.2635" stroke-width="1"></path><path stroke="#a482a4" stroke-linecap="round" stroke-linejoin="round" d="M118.0269 118.348285c8.072434999999999 1.43678 34.388195 -3.28947 51.327075 -22.49695" stroke-width="1"></path><path stroke="#a482a4" stroke-linecap="round" stroke-linejoin="round" d="m181.604415 136.118985 -4.026764999999999 -2.287505 2.287505 -4.026764999999999" stroke-width="1"></path><path stroke="#a482a4" stroke-linecap="round" stroke-linejoin="round" d="M177.57765 133.8275a7.119225 7.119225 0 0 1 8.452525 1.52235 7.113255 7.113255 0 0 1 0.828835 8.54904 7.11226 7.11226 0 0 1 -11.741000000000001 0.558195 7.11226 7.11226 0 0 1 -1.43479 -4.29641" stroke-width="1"></path><path stroke="#a482a4" stroke-linecap="round" stroke-linejoin="round" d="m130.296245 62.994445 -20.511924999999998 -8.809729999999998 1.115395 -2.5710800000000003 20.49302 8.809729999999998 -1.0964900000000002 2.5710800000000003Z" stroke-width="1"></path></g></g></svg>