<svg xmlns="http://www.w3.org/2000/svg" fill="none" viewBox="0 0 200 200" id="Looking-Through-Telescope-2--Streamline-Bangalore.svg" height="200" width="200"><desc>Looking Through Telescope 2 Streamline Illustration: https://streamlinehq.com</desc><g id="looking-through-telescope-2--science-technology-looking-through-telescope"><g id="planet"><path id="vector" stroke="#a482a4" stroke-linecap="round" stroke-linejoin="round" d="M154.351 114.539c14.507 -38.9111 -14.214 -80.8891 -56.19 -80.8891 -7.5161 -0.009 -14.9665 1.3989 -21.961 4.15" stroke-width="1"></path><path id="vector_2" stroke="#a482a4" stroke-linecap="round" stroke-linejoin="round" d="M133.858 141.767c3.533 -2.623 6.768 -5.624 9.648 -8.951" stroke-width="1"></path><path id="vector_3" stroke="#a482a4" stroke-linecap="round" stroke-linejoin="round" d="M39.427 81.532c-2.2072 10.7765 -1.4085 21.952 2.3088 32.306 3.7173 10.353 10.2101 19.484 18.7681 26.396 8.558 6.911 18.8518 11.336 29.7554 12.79 10.9037 1.454 21.9977 -0.118 32.0677 -4.544" stroke-width="1"></path><path id="vector_4" stroke="#a482a4" stroke-linecap="round" stroke-linejoin="round" d="M139.542 84.122c28.068 -14.6 46.064 -27.562 43.876 -32.649 -1.805 -4.2 -16.518 -2.147 -38.57 4.517" stroke-width="1"></path><path id="vector_5" stroke="#a482a4" stroke-linecap="round" stroke-linejoin="round" d="M126.832 90.5091c0.738 -0.358 1.471 -0.716 2.2 -1.074" stroke-width="1"></path><path id="vector_6" stroke="#a482a4" stroke-linecap="round" stroke-linejoin="round" d="M38.7 101.306C17.808 113.1 4.30001 123.4 6.14601 127.7c3.09 7.185 45.27899 -4.054 94.23099 -25.1 2.786 -1.2 5.532 -2.403 8.238 -3.609" stroke-width="1"></path></g><g id="elements"><g id="group"><path id="vector_7" stroke="#a482a4" stroke-linecap="round" stroke-linejoin="round" d="M18.938 90.3v5.103" stroke-width="1"></path><path id="vector_8" stroke="#a482a4" stroke-linecap="round" stroke-linejoin="round" d="M21.49 92.8511h-5.104" stroke-width="1"></path></g><g id="group_2"><path id="vector_9" stroke="#a482a4" stroke-linecap="round" stroke-linejoin="round" d="M147.014 29.158v5.104" stroke-width="1"></path><path id="vector_10" stroke="#a482a4" stroke-linecap="round" stroke-linejoin="round" d="M149.566 31.71h-5.104" stroke-width="1"></path></g><path id="vector_11" fill="#f48250" d="M40.934 148.725c0.88 1.782 0.826 1.759 1 1.784l1.823 0.265c0.0443 0.007 0.0859 0.025 0.1202 0.054 0.0342 0.029 0.0597 0.067 0.0736 0.11 0.0139 0.042 0.0157 0.088 0.0051 0.131 -0.0105 0.044 -0.033 0.084 -0.0649 0.115 -1.423 1.387 -1.418 1.328 -1.389 1.5l0.311 1.816c0.0075 0.044 0.0026 0.089 -0.0143 0.131 -0.0169 0.041 -0.045 0.077 -0.0812 0.104 -0.0362 0.026 -0.079 0.042 -0.1236 0.045 -0.0446 0.003 -0.0893 -0.006 -0.1289 -0.027 -1.759 -0.925 -1.7 -0.938 -1.855 -0.857l-1.631 0.857c-0.0397 0.021 -0.0843 0.03 -0.1289 0.027 -0.0447 -0.003 -0.0875 -0.019 -0.1237 -0.045 -0.0362 -0.027 -0.0643 -0.063 -0.0812 -0.104 -0.0168 -0.042 -0.0218 -0.087 -0.0142 -0.131 0.329 -1.92 0.367 -1.907 0.242 -2.029l-1.32 -1.286c-0.0319 -0.031 -0.0544 -0.071 -0.065 -0.115 -0.0106 -0.043 -0.0088 -0.089 0.0051 -0.131 0.0139 -0.043 0.0395 -0.081 0.0737 -0.11 0.0342 -0.029 0.0759 -0.047 0.1202 -0.054 1.966 -0.286 1.928 -0.242 2 -0.4l0.815 -1.653c0.0202 -0.04 0.0512 -0.074 0.0895 -0.097 0.0384 -0.024 0.0825 -0.036 0.1274 -0.036 0.0449 0.001 0.0889 0.014 0.1269 0.038 0.038 0.023 0.0685 0.058 0.0882 0.098Z" stroke-width="1"></path><path id="vector_12" fill="#f48250" d="M170.6 89.0109c1.391 2.818 1.283 2.727 1.545 2.765l2.826 0.41c0.069 0.0102 0.133 0.0394 0.186 0.0842 0.053 0.0449 0.093 0.1038 0.114 0.1699 0.022 0.0661 0.024 0.1369 0.008 0.2044 -0.017 0.0675 -0.052 0.129 -0.102 0.1775 -2.25 2.193 -2.2 2.062 -2.152 2.323l0.483 2.815c0.012 0.0686 0.004 0.1391 -0.022 0.2036s-0.07 0.1203 -0.126 0.1611c-0.057 0.0408 -0.123 0.0651 -0.193 0.0699 -0.069 0.0048 -0.139 -0.0099 -0.2 -0.0426 -2.781 -1.462 -2.64 -1.452 -2.874 -1.329l-2.528 1.329c-0.061 0.0324 -0.131 0.0469 -0.2 0.0419 -0.069 -0.0049 -0.136 -0.0292 -0.192 -0.07 -0.056 -0.0408 -0.1 -0.0964 -0.126 -0.1608 -0.026 -0.0643 -0.034 -0.1346 -0.022 -0.2031 0.531 -3.1 0.565 -2.96 0.375 -3.145l-2.045 -1.993c-0.05 -0.0486 -0.085 -0.1101 -0.102 -0.1777 -0.016 -0.0675 -0.014 -0.1384 0.008 -0.2046 0.021 -0.0661 0.061 -0.1249 0.114 -0.1698 0.053 -0.0448 0.118 -0.0739 0.187 -0.0839 3.109 -0.452 2.989 -0.377 3.106 -0.614l1.264 -2.561c0.031 -0.0624 0.078 -0.115 0.137 -0.1519 0.059 -0.0368 0.127 -0.0563 0.197 -0.0563s0.138 0.0195 0.197 0.0563c0.059 0.0369 0.106 0.0895 0.137 0.1519Z" stroke-width="1"></path><path id="vector_13" fill="#f48250" d="M104 13.8499c1.122 2.272 1.073 2.294 1.3 2.326l2.379 0.346c0.058 0.0083 0.112 0.0328 0.157 0.0705 0.045 0.0378 0.078 0.0873 0.096 0.1431 0.018 0.0557 0.02 0.1154 0.006 0.1722 -0.014 0.0568 -0.044 0.1085 -0.086 0.1492 -1.815 1.769 -1.85 1.729 -1.811 1.955l0.406 2.369c0.01 0.0577 0.004 0.117 -0.018 0.1713 -0.022 0.0542 -0.059 0.1012 -0.107 0.1356 -0.047 0.0343 -0.103 0.0547 -0.161 0.0588 -0.059 0.0041 -0.117 -0.0082 -0.169 -0.0357 -2.243 -1.179 -2.216 -1.225 -2.419 -1.118l-2.127 1.118c-0.052 0.0275 -0.11 0.0398 -0.168 0.0357 -0.059 -0.0041 -0.115 -0.0245 -0.162 -0.0588 -0.048 -0.0344 -0.085 -0.0814 -0.107 -0.1356 -0.022 -0.0543 -0.028 -0.1136 -0.018 -0.1713 0.428 -2.5 0.48 -2.486 0.316 -2.646l-1.721 -1.678c-0.0418 -0.0409 -0.0713 -0.0927 -0.0852 -0.1495 -0.014 -0.0567 -0.0118 -0.1163 0.0063 -0.1719 0.0181 -0.0556 0.0513 -0.1051 0.096 -0.1428 0.0447 -0.0378 0.099 -0.0623 0.1569 -0.0708 2.508 -0.364 2.513 -0.311 2.614 -0.517l1.064 -2.155c0.026 -0.0525 0.066 -0.0968 0.115 -0.1277 0.05 -0.031 0.107 -0.0474 0.166 -0.0474 0.059 0 0.116 0.0164 0.166 0.0474 0.049 0.0309 0.089 0.0752 0.115 0.1277Z" stroke-width="1"></path></g><g id="telescope"><path id="vector_14" stroke="#a482a4" stroke-linecap="round" stroke-linejoin="round" d="m58.91 171.54 24.182 -92.6179 18.155 92.6179" stroke-width="1"></path><path id="vector_15" stroke="#a482a4" stroke-linecap="round" stroke-linejoin="round" d="m83.092 78.9221 -1.69 105.9149" stroke-width="1"></path><path id="vector_16" fill="#d6587e" d="M58.679 173.524c0.8218 0 1.488 -0.666 1.488 -1.488s-0.6662 -1.488 -1.488 -1.488 -1.488 0.666 -1.488 1.488 0.6662 1.488 1.488 1.488Z" stroke-width="1"></path><path id="vector_17" fill="#d6587e" d="M81.402 186.325c0.8218 0 1.488 -0.666 1.488 -1.488s-0.6662 -1.488 -1.488 -1.488 -1.488 0.666 -1.488 1.488 0.6662 1.488 1.488 1.488Z" stroke-width="1"></path><path id="vector_18" fill="#d6587e" d="M101.247 173.028c0.822 0 1.488 -0.666 1.488 -1.488s-0.666 -1.488 -1.488 -1.488 -1.488 0.666 -1.488 1.488 0.666 1.488 1.488 1.488Z" stroke-width="1"></path><path id="vector_19" fill="#d6587e" d="m126.726 71.2461 -1.649 -0.486c-0.221 -0.823 -0.649 -1.5754 -1.245 -2.1849 -0.595 -0.6094 -1.337 -1.0554 -2.155 -1.2951l-2.66 -0.786c-0.111 3.8788 -0.906 7.7075 -2.348 11.31l2.488 0.356c0.824 0.1437 1.672 0.0757 2.463 -0.1974 0.791 -0.2732 1.5 -0.7427 2.06 -1.3646l1.751 0.25c0.699 0.0669 1.399 -0.1225 1.97 -0.5328 0.57 -0.4104 0.972 -1.0138 1.131 -1.6982 0.159 -0.6844 0.064 -1.4032 -0.268 -2.0229 -0.331 -0.6196 -0.876 -1.0979 -1.533 -1.3461l-0.005 -0.002Z" stroke-width="1"></path><path id="vector_20" stroke="#a482a4" stroke-linecap="round" stroke-linejoin="round" d="m126.726 71.2461 -1.649 -0.486c-0.221 -0.823 -0.649 -1.5754 -1.245 -2.1849 -0.595 -0.6094 -1.337 -1.0554 -2.155 -1.2951l-2.66 -0.786c-0.111 3.8788 -0.906 7.7075 -2.348 11.31l2.488 0.356c0.824 0.1437 1.672 0.0757 2.463 -0.1974 0.791 -0.2732 1.5 -0.7427 2.06 -1.3646l1.751 0.25c0.699 0.0669 1.399 -0.1225 1.97 -0.5328 0.57 -0.4104 0.972 -1.0138 1.131 -1.6982 0.159 -0.6844 0.064 -1.4032 -0.268 -2.0229 -0.331 -0.6196 -0.876 -1.0979 -1.533 -1.3461l-0.005 -0.002Z" stroke-width="1"></path><path id="vector_21" stroke="#a482a4" stroke-linecap="round" stroke-linejoin="round" d="m114.214 80.8481 0.678 0.042c0.105 0.0044 0.209 -0.0216 0.299 -0.0748 0.091 -0.0532 0.164 -0.1314 0.211 -0.2252 2.65 -5.1715 3.883 -10.9524 3.574 -16.755 -0.005 -0.0924 -0.033 -0.182 -0.082 -0.2607 -0.048 -0.0787 -0.116 -0.1441 -0.196 -0.1903l-34.042 -19.731c3.552 13.419 -0.785 27.17 -10.64 34.707l24.934 1.54" stroke-width="1"></path><path id="vector_22" fill="#d6587e" d="m84.656 43.6532 -23.747 -16.443c11.72 17.164 4.848 42.653 -13.885 51.782l26.992 -0.632c9.855 -7.537 14.192 -21.288 10.64 -34.707Z" stroke-width="1"></path><path id="vector_23" stroke="#a482a4" stroke-linecap="round" stroke-linejoin="round" d="m84.656 43.6532 -23.747 -16.443c11.72 17.164 4.848 42.653 -13.885 51.782l26.992 -0.632c9.855 -7.537 14.192 -21.288 10.64 -34.707Z" stroke-width="1"></path><path id="vector_24" stroke="#a482a4" stroke-linecap="round" stroke-linejoin="round" d="M45.344 15.7561c-16.198 -4.726 -33.584 6.033 -38.83403 24.028 -5.25 17.995 3.62603 36.416 19.82403 41.14 16.198 4.724 33.585 -6.033 38.834 -24.024 5.249 -17.991 -3.626 -36.419 -19.824 -41.144Z" stroke-width="1"></path><path id="vector_25" fill="#f48250" d="M42.877 19.0282c-12.984 -3.788 -27.233 5.905 -31.826 21.65 -4.59301 15.745 2.209 31.578 15.193 35.366 12.984 3.788 27.233 -5.906 31.826 -21.65s-2.209 -31.579 -15.193 -35.366Zm-11.965 41.942c-6.842 -1.586 -11.3 -8.726 -11.48 -17.229 3.905 -7.556 11.049 -12 17.891 -10.418 6.842 1.582 11.3 8.726 11.48 17.229 -3.903 7.556 -11.049 12.005 -17.891 10.418Z" stroke-width="1"></path><path id="vector_26" stroke="#a482a4" stroke-linecap="round" stroke-linejoin="round" d="M58.0704 54.3947c4.5929 -15.7444 -2.2096 -31.5783 -15.1938 -35.3661 -12.9843 -3.7877 -27.2334 5.905 -31.8264 21.6494 -4.5929 15.7444 2.2096 31.5784 15.1938 35.3661 12.9843 3.7878 27.2334 -5.905 31.8264 -21.6494Z" stroke-width="1"></path><path id="vector_27" fill="#d6587e" d="M11.051 40.6781c-4.00003 13.718 0.648 27.505 10.5 33.331 -7.007 -6.823 -9.872 -18.551 -6.465 -30.232 5.171 -17.72 22.683 -27.777 36.529 -19.608 -13.068 -12.739 -34.558 -4.08 -40.564 16.509Z" stroke-width="1"></path><path id="vector_28" stroke="#a482a4" stroke-linecap="round" stroke-linejoin="round" d="M11.051 40.6781c-4.00003 13.718 0.648 27.505 10.5 33.331 -7.007 -6.823 -9.872 -18.551 -6.465 -30.232 5.171 -17.72 22.683 -27.777 36.529 -19.608 -13.068 -12.739 -34.558 -4.08 -40.564 16.509Z" stroke-width="1"></path><path id="vector_29" stroke="#a482a4" stroke-linecap="round" stroke-linejoin="round" d="M48.8045 50.5512c1.7703 -7.6344 -3.3699 -15.348 -11.481 -17.2287 -8.111 -1.8808 -16.1214 2.7834 -17.8916 10.4177 -1.7703 7.6344 3.3699 15.348 11.481 17.2287 8.111 1.8808 16.1214 -2.7834 17.8916 -10.4177Z" stroke-width="1"></path><path id="vector_30" fill="#d6587e" d="M41.2026 48.7896c1.1835 -5.1036 -1.0292 -9.9764 -4.9421 -10.8838 -3.9129 -0.9074 -8.0444 2.4943 -9.2279 7.5978 -1.1835 5.1035 1.0291 9.9764 4.9421 10.8838 3.9129 0.9074 8.0444 -2.4943 9.2279 -7.5978Z" stroke-width="1"></path><path id="vector_31" stroke="#a482a4" stroke-linecap="round" stroke-linejoin="round" d="M41.2026 48.7896c1.1835 -5.1036 -1.0292 -9.9764 -4.9421 -10.8838 -3.9129 -0.9074 -8.0444 2.4943 -9.2279 7.5978 -1.1835 5.1035 1.0291 9.9764 4.9421 10.8838 3.9129 0.9074 8.0444 -2.4943 9.2279 -7.5978Z" stroke-width="1"></path></g><g id="character"><path id="vector_32" stroke="#a482a4" stroke-linecap="round" stroke-linejoin="round" d="M91.209 79.4241c0.629 0.416 5.544 6.179 6.526 7.018 1.3006 -1.7406 2.762 -3.3551 4.365 -4.822" stroke-width="1"></path><path id="vector_33" stroke="#a482a4" stroke-linecap="round" stroke-linejoin="round" d="M121.752 108.607c-10.625 -3.99 -24.017 -22.1651 -24.017 -22.1651" stroke-width="1"></path><path id="vector_34" stroke="#a482a4" stroke-linecap="round" stroke-linejoin="round" d="M126.914 117.866v-3.855c-0.506 -2.563 -0.84 -5.157 -1 -7.765 -1.2 -1 -2.376 -2.07 -3.518 -3.166 -0.184 1.329 -0.357 2.778 -0.515 4.356 -1.1 11.04 -3.547 12.124 -4.914 24.443l4.659 -0.415c2.05 -6.004 4.491 -11.756 5.288 -13.598Z" stroke-width="1"></path><path id="vector_35" fill="#f48250" d="M133.427 94.9699c0.045 -1.452 0.3 -6.538 1.715 -8.659 -0.49 0.023 -2.815 -0.243 -3.028 -0.714 -1.796 1.5816 -3.187 3.5704 -4.056 5.8 2.042 1.451 3.966 2.758 5.369 3.573Z" stroke-width="1"></path><path id="vector_36" fill="#f48250" d="M125.911 106.246c0.16 2.608 0.494 5.202 1 7.765l5.736 -0.452c-0.212 -1.013 -0.4 -2.023 -0.571 -3 -2.192 -1.231 -4.257 -2.675 -6.165 -4.313Z" stroke-width="1"></path><path id="vector_37" stroke="#a482a4" stroke-linecap="round" stroke-linejoin="round" d="M133.427 94.9699c0.045 -1.452 0.3 -6.538 1.715 -8.659 -0.49 0.023 -2.815 -0.243 -3.028 -0.714 -1.796 1.5816 -3.187 3.5704 -4.056 5.8" stroke-width="1"></path><path id="vector_38" stroke="#a482a4" stroke-linecap="round" stroke-linejoin="round" d="M125.911 106.246c0.16 2.608 0.494 5.202 1 7.765l5.736 -0.452c-0.212 -1.013 -0.4 -2.023 -0.571 -3" stroke-width="1"></path><path id="vector_39" stroke="#a482a4" stroke-linecap="round" stroke-linejoin="round" d="M126.914 114.011v3.855c-2.789 6.379 -5.178 12.925 -7.155 19.6 -0.386 1.429 -0.484 2.92 -0.29 4.387 0.195 1.467 0.678 2.881 1.423 4.16l12.2 21 10.661 -5.655 -10.08 -19.958 4.618 -11.171" stroke-width="1"></path><path id="vector_40" stroke="#a482a4" stroke-linecap="round" stroke-linejoin="round" d="M142.567 131.571c0.368 0.498 0.735 0.983 1.1 1.456 0.909 1.168 2.041 2.144 3.33 2.871 1.29 0.727 2.71 1.191 4.18 1.365l24.111 2.888 1.9 -11.918 -22.007 -3.956 -1.166 -1.974" stroke-width="1"></path><path id="vector_41" fill="#d6587e" d="M149.512 172.265c-6.354 4.991 -13.196 9.328 -20.421 12.945 5.954 -12.559 5.754 -11.966 5.9 -12.859l11.56 -5.687 2.961 5.601Z" stroke-width="1"></path><path id="vector_42" stroke="#a482a4" stroke-linecap="round" stroke-linejoin="round" d="M149.512 172.265c-6.354 4.991 -13.196 9.328 -20.421 12.945 5.954 -12.559 5.754 -11.966 5.9 -12.859l11.56 -5.687 2.961 5.601Z" stroke-width="1"></path><path id="vector_43" stroke="#a482a4" stroke-linecap="round" stroke-linejoin="round" d="m149.512 172.265 0.369 0.7c0.194 0.368 0.249 0.793 0.153 1.198 -0.096 0.405 -0.336 0.761 -0.675 1.002 -3.172 2.255 -11.939 8.255 -19.288 11.1 -0.145 0.056 -0.302 0.067 -0.453 0.032 -0.151 -0.035 -0.288 -0.114 -0.394 -0.227 -0.105 -0.114 -0.174 -0.256 -0.198 -0.409 -0.024 -0.153 -0.001 -0.31 0.065 -0.45 7.225 -3.617 14.067 -7.955 20.421 -12.946Z" stroke-width="1"></path><path id="vector_44" stroke="#a482a4" stroke-linecap="round" stroke-linejoin="round" d="m146.553 166.664 -11.56 5.687c0.172 -1.033 -0.021 -2.094 -0.547 -3l-1.357 -2.336 10.661 -5.655 2.803 5.304Z" stroke-width="1"></path><path id="vector_45" fill="#d6587e" d="m133.673 141.399 -0.848 2.05 3.646 3.492 -2.798 -5.542Z" stroke-width="1"></path><path id="vector_46" stroke="#a482a4" stroke-linecap="round" stroke-linejoin="round" d="m133.673 141.399 -0.848 2.05 3.646 3.492 -2.798 -5.542Z" stroke-width="1"></path><path id="vector_47" stroke="#a482a4" stroke-linecap="round" stroke-linejoin="round" d="m183.109 129.185 -2.215 11.631c-1.163 0 -5.6 -0.665 -5.6 -0.665l1.9 -11.918 5.915 0.952Z" stroke-width="1"></path><path id="vector_48" fill="#d6587e" d="m155.179 124.277 1.2 2.032 4.91 -0.934 -6.11 -1.098Z" stroke-width="1"></path><path id="vector_49" stroke="#a482a4" stroke-linecap="round" stroke-linejoin="round" d="m155.179 124.277 1.2 2.032 4.91 -0.934 -6.11 -1.098Z" stroke-width="1"></path><path id="vector_50" stroke="#a482a4" stroke-linecap="round" stroke-linejoin="round" d="M146.422 104.133c-0.584 1.718 -1.379 3.357 -2.368 4.879 -2.837 4.433 -7.259 4.084 -11.975 1.542 1.052 6.122 3.263 14.947 7.858 22.685 0 0 11.188 -6.615 16.347 -13.627 0 0 -2.772 -10.262 -9.862 -15.479Z" stroke-width="1"></path><path id="vector_51" fill="#d6587e" d="M143.781 71.669c0.315 -0.2838 0.558 -0.6387 0.708 -1.0352 0.151 -0.3966 0.204 -0.8233 0.157 -1.2447 -0.048 -0.4214 -0.196 -0.8253 -0.431 -1.1782 -0.236 -0.3528 -0.552 -0.6443 -0.922 -0.8503 -0.371 -0.206 -0.786 -0.3206 -1.21 -0.3341 -0.423 -0.0135 -0.844 0.0744 -1.228 0.2563 -0.383 0.182 -0.717 0.4528 -0.974 0.7899 -0.257 0.3371 -0.43 0.7308 -0.505 1.1483 -1.117 -0.0802 -2.233 0.1728 -3.207 0.727 -0.431 -0.2644 -0.91 -0.4407 -1.41 -0.5185 -0.499 -0.0778 -1.009 -0.0557 -1.5 0.0651 -0.491 0.1207 -0.953 0.3378 -1.36 0.6385 -0.406 0.3007 -0.749 0.6791 -1.008 1.1132 -0.259 0.4342 -0.429 0.9155 -0.501 1.4159 -0.072 0.5005 -0.043 1.0102 0.083 1.4997 0.127 0.4894 0.35 0.9488 0.655 1.3516 0.306 0.4027 0.689 0.7407 1.126 0.9945 0.362 -0.982 0.832 -1.921 1.4 -2.8 1.296 0.1435 2.607 0.0482 3.868 -0.281 0.409 -0.164 0.5 -0.247 0.9 0.266 0.645 0.9994 1.078 2.1205 1.273 3.294 1.1 -0.771 1.858 0.473 1.239 1.915 -0.391 0.912 -1.165 1.455 -1.728 1.213 -0.085 -0.0473 -0.165 -0.104 -0.237 -0.169 -0.399 0.5206 -0.63 1.15 -0.664 1.805 3.887 0.593 8.932 -5.525 5.476 -10.082Z" stroke-width="1"></path><path id="vector_52" stroke="#a482a4" stroke-linecap="round" stroke-linejoin="round" d="M143.781 71.669c0.315 -0.2838 0.558 -0.6387 0.708 -1.0352 0.151 -0.3966 0.204 -0.8233 0.157 -1.2447 -0.048 -0.4214 -0.196 -0.8253 -0.431 -1.1782 -0.236 -0.3528 -0.552 -0.6443 -0.922 -0.8503 -0.371 -0.206 -0.786 -0.3206 -1.21 -0.3341 -0.423 -0.0135 -0.844 0.0744 -1.228 0.2563 -0.383 0.182 -0.717 0.4528 -0.974 0.7899 -0.257 0.3371 -0.43 0.7308 -0.505 1.1483 -1.117 -0.0802 -2.233 0.1728 -3.207 0.727 -0.431 -0.2644 -0.91 -0.4407 -1.41 -0.5185 -0.499 -0.0778 -1.009 -0.0557 -1.5 0.0651 -0.491 0.1207 -0.953 0.3378 -1.36 0.6385 -0.406 0.3007 -0.749 0.6791 -1.008 1.1132 -0.259 0.4342 -0.429 0.9155 -0.501 1.4159 -0.072 0.5005 -0.043 1.0102 0.083 1.4997 0.127 0.4894 0.35 0.9488 0.655 1.3516 0.306 0.4027 0.689 0.7407 1.126 0.9945 0.362 -0.982 0.832 -1.921 1.4 -2.8 1.296 0.1435 2.607 0.0482 3.868 -0.281 0.409 -0.164 0.5 -0.247 0.9 0.266 0.645 0.9994 1.078 2.1205 1.273 3.294 1.1 -0.771 1.858 0.473 1.239 1.915 -0.391 0.912 -1.165 1.455 -1.728 1.213 -0.085 -0.0473 -0.165 -0.104 -0.237 -0.169 -0.399 0.5206 -0.63 1.15 -0.664 1.805 3.887 0.593 8.932 -5.525 5.476 -10.082Z" stroke-width="1"></path><path id="vector_53" stroke="#a482a4" stroke-linecap="round" stroke-linejoin="round" d="m132.225 120.741 3.964 4.788" stroke-width="1"></path><path id="vector_54" stroke="#a482a4" stroke-linecap="round" stroke-linejoin="round" d="m145.561 112.8 -5.126 2.775c-0.181 0.098 -0.326 0.252 -0.413 0.439 -0.086 0.186 -0.11 0.396 -0.068 0.598 0.373 1.743 1.6 6.58 4.452 6.326 5.16 -0.46 6.4 -4.5 2.372 -9.878 -0.138 -0.182 -0.337 -0.308 -0.56 -0.356 -0.224 -0.048 -0.457 -0.014 -0.657 0.096Z" stroke-width="1"></path><path id="vector_55" fill="#d6587e" d="m187.9 129.932 -4.787 -0.747 -2.215 11.631 12.413 8.9c-0.195 -1.227 -0.483 -2.438 -0.862 -3.621 -4.808 -16.084 -2.629 -9.255 -4.549 -16.163Z" stroke-width="1"></path><path id="vector_56" stroke="#a482a4" stroke-linecap="round" stroke-linejoin="round" d="m187.9 129.932 -4.787 -0.747 -2.215 11.631 12.413 8.9c-0.195 -1.227 -0.483 -2.438 -0.862 -3.621 -4.808 -16.084 -2.629 -9.255 -4.549 -16.163Z" stroke-width="1"></path><path id="vector_57" stroke="#a482a4" stroke-linecap="round" stroke-linejoin="round" d="M193.307 149.711c0.161 0.114 0.353 0.176 0.55 0.178 0.197 0.002 0.39 -0.057 0.553 -0.167 0.163 -0.111 0.288 -0.269 0.359 -0.453 0.071 -0.183 0.084 -0.385 0.038 -0.576 -1.137 -4.614 -3.55 -14.247 -4.8 -18.044 -0.04 -0.124 -0.114 -0.234 -0.214 -0.317 -0.099 -0.084 -0.219 -0.139 -0.348 -0.158l-1.554 -0.242c1.922 6.9 -0.255 0.076 4.549 16.158 0.381 1.183 0.671 2.394 0.867 3.621Z" stroke-width="1"></path><path id="vector_58" stroke="#a482a4" stroke-linecap="round" stroke-linejoin="round" d="M135.142 86.3111s3.079 -1.2 3.311 -2.619c-0.213 -1.329 -0.358 -2.616 0.514 -3.749 0.072 0.0656 0.151 0.1224 0.237 0.169 0.563 0.242 1.337 -0.3 1.728 -1.213 0.627 -1.462 -0.154 -2.674 -1.239 -1.915 -0.195 -1.1734 -0.628 -2.2945 -1.273 -3.294 -0.4 -0.513 -0.487 -0.429 -0.9 -0.266 -1.261 0.3292 -2.572 0.4245 -3.868 0.281 0 0 -2.491 3.677 -1.809 6.479 0.136 0.5858 0.465 1.1089 0.934 1.4851 0.469 0.3762 1.052 0.5836 1.653 0.5889 -0.059 2.047 -2.382 2.882 -2.335 3.287 0.063 0.504 2.54 0.79 3.047 0.766Z" stroke-width="1"></path><path id="vector_59" stroke="#a482a4" stroke-linecap="round" stroke-linejoin="round" d="M134.434 82.2579c0.649 0.0485 1.302 -0.0341 1.919 -0.243" stroke-width="1"></path><path id="vector_60" stroke="#a482a4" stroke-linecap="round" stroke-linejoin="round" d="M110.44 89.485s3.269 -4.486 6.521 -6.445c-1.001 -0.7132 -1.955 -1.4905 -2.856 -2.327 -0.2 -0.364 0.511 -3.384 0.986 -4.922 0.475 -1.538 0.027 -1.945 -0.535 -1.706 -0.468 0.2 -2.323 3.118 -2.933 4.1 -0.022 0.0353 -0.053 0.0648 -0.089 0.0858 -0.036 0.021 -0.076 0.0329 -0.118 0.0348 -0.042 0.0019 -0.083 -0.0064 -0.121 -0.0241 -0.038 -0.0177 -0.071 -0.0443 -0.096 -0.0775l-1.889 -2.468s-3.263 -4.265 -4.162 -4.24c-1.9 0.051 2.415 6.179 2.415 6.179 -0.8 -0.9 -1.81 -1.643 -2.643 -2.513 -0.595 -0.621 -1.2 -1.239 -1.83 -1.82 -0.285 -0.262 -0.765 -0.831 -1.193 -0.812 -0.277 0.012 -0.544 0.125 -0.569 0.437 -0.047 0.6 0.5 1.251 0.836 1.7 1.208 1.55 2.494 3.0372 3.854 4.456 -0.8 -0.691 -4.473 -3.856 -5.512 -4.054 -0.418 -0.08 -0.748 0.206 -0.584 0.643 0.333 0.89 3.5 3.738 4.365 4.527 0.117 0.106 0.531 0.37 0.566 0.516 0 0 -5.114 -1.936 -5.678 -1.5 -1.587 1.213 4.05 2.452 4.984 3.412 1.709 1.753 5.417 6.08 6.281 6.818Z" stroke-width="1"></path><path id="vector_61" stroke="#a482a4" stroke-linecap="round" stroke-linejoin="round" d="M140.317 86.024c-5.191 2.811 -5.609 9.612 -5.609 9.612C130.9 94 116.961 83.04 116.961 83.04c-3.252 1.959 -6.521 6.445 -6.521 6.445s24.678 33.492 33.614 19.527c7.468 -11.673 0.221 -20.703 -3.737 -22.988Z" stroke-width="1"></path><path id="vector_62" stroke="#a482a4" stroke-linecap="round" stroke-linejoin="round" d="M121.7 86.689s-5.27 5.017 -7.458 7.573" stroke-width="1"></path><path id="vector_63" fill="#d6587e" d="M113.573 90.9159c0.367 0 0.664 -0.2973 0.664 -0.664s-0.297 -0.664 -0.664 -0.664c-0.367 0 -0.664 0.2973 -0.664 0.664s0.297 0.664 0.664 0.664Z" stroke-width="1"></path><path id="vector_64" stroke="#a482a4" stroke-linecap="round" stroke-linejoin="round" d="M138.453 83.6919c-0.232 1.422 -3.311 2.619 -3.311 2.619 -1.414 2.12 -1.67 7.207 -1.715 8.659 0.414 0.2467 0.841 0.469 1.281 0.666 0 0 0.434 -7.049 5.9 -9.761 1.775 -0.884 -2.155 -2.183 -2.155 -2.183Z" stroke-width="1"></path></g></g></svg>